<svg xmlns="http://www.w3.org/2000/svg" width="858" height="557" viewBox="0 0 858 557">
  <g id="三段电压曲线_截断_" data-name="三段电压曲线（截断）" transform="translate(-340 -310)">
    <g id="组_36143" data-name="组 36143" transform="translate(27 1515) rotate(-90)">
      <g id="组_36142" data-name="组 36142" transform="translate(921 313) rotate(90)">
        <path id="路径_51268" data-name="路径 51268" d="M0,0H840" transform="translate(0 6)" fill="none" stroke="#b2b2b2" stroke-width="2"/>
        <path id="多边形_2" data-name="多边形 2" d="M4.1,5.692a2,2,0,0,1,3.795,0l3.225,9.675A2,2,0,0,1,9.225,18H2.775a2,2,0,0,1-1.9-2.632Z" transform="translate(858 0) rotate(90)" fill="#b2b2b2"/>
      </g>
      <path id="路径_51268-2" data-name="路径 51268" d="M4356,5880h539" transform="translate(-3708 -5156)" fill="none" stroke="#b2b2b2" stroke-width="2"/>
      <path id="多边形_2-2" data-name="多边形 2" d="M4.1,5.692a2,2,0,0,1,3.795,0l3.225,9.675A2,2,0,0,1,9.225,18H2.775a2,2,0,0,1-1.9-2.632Z" transform="translate(1205 718) rotate(90)" fill="#b2b2b2"/>
    </g>
    <path id="路径_51270" data-name="路径 51270" d="M4425.333,5813.333v-204" transform="translate(-3890 -5213.333)" fill="none" stroke="#707070" stroke-width="1" stroke-dasharray="8 4"/>
    <path id="路径_51274" data-name="路径 51274" d="M4425.333,5609.333v202" transform="translate(-3458.334 -5008.333)" fill="none" stroke="#707070" stroke-width="1" stroke-dasharray="8 4"/>
    <path id="路径_51272" data-name="路径 51272" d="M4425.333,5609.333V5826" transform="translate(6361.333 -4027.333) rotate(90)" fill="none" stroke="#707070" stroke-width="1" stroke-dasharray="8 4"/>
    <path id="路径_51275" data-name="路径 51275" d="M4425.333,5609.333v215.75" transform="translate(6576.334 -3622.333) rotate(90)" fill="none" stroke="#707070" stroke-width="1" stroke-dasharray="8 4"/>
    <text id="Q0" transform="translate(767 580)" fill="#666" font-size="18" font-family="SourceHanSansSC-Regular, Source Han Sans SC"><tspan x="0" y="0">Q</tspan><tspan y="0" font-size="12">0</tspan></text>
    <text id="Umin" transform="translate(518 630)" fill="#1a9fe7" font-size="18" font-family="SourceHanSansSC-Regular, Source Han Sans SC"><tspan x="0" y="0">U</tspan><tspan y="0" font-size="12">min</tspan></text>
    <text id="Umax" transform="translate(948 584)" fill="#1a9fe7" font-size="18" font-family="SourceHanSansSC-Regular, Source Han Sans SC"><tspan x="0" y="0">U</tspan><tspan y="0" font-size="12">max</tspan></text>
    <text id="U_p.u._" data-name="U(p.u.)" transform="translate(1119 630)" fill="#666" font-size="18" font-family="SourceHanSansSC-Regular, Source Han Sans SC"><tspan x="0" y="0">U</tspan><tspan y="0" font-size="12">(p.u.)</tspan></text>
    <text id="Q_kVar_" data-name="Q(kVar)" transform="translate(765 350)" fill="#666" font-size="18" font-family="SourceHanSansSC-Regular, Source Han Sans SC"><tspan x="0" y="0">Q(kVar)</tspan></text>
    <path id="路径_51443" data-name="路径 51443" d="M4422,5528.667v97l114.078,105H4638" transform="translate(-3570 -4928.666)" fill="none" stroke="#1a9fe7" stroke-linecap="round" stroke-width="4"/>
    <path id="路径_51449" data-name="路径 51449" d="M4638,5730.667v-97l-114.078-105H4422" transform="translate(-3990 -5130.666)" fill="none" stroke="#1a9fe7" stroke-linecap="round" stroke-width="4"/>
    <path id="路径_51444" data-name="路径 51444" d="M669.167,622h204" transform="translate(-21.167 -22)" fill="none" stroke="#1a9fe7" stroke-linecap="round" stroke-width="4"/>
    <g id="组_36958" data-name="组 36958" transform="translate(15 -8)">
      <text id="A" transform="translate(690 386)" fill="#666" font-size="12" font-family="SourceHanSansSC-Regular, Source Han Sans SC"><tspan x="0" y="0">A</tspan></text>
      <text id="_1" data-name="1" transform="translate(715 386)" fill="#666" font-size="12" font-family="SourceHanSansSC-Regular, Source Han Sans SC"><tspan x="0" y="0">1</tspan></text>
      <text id="_." data-name="." transform="translate(697 378)" fill="#666" font-size="18" font-family="SourceHanSansSC-Regular, Source Han Sans SC"><tspan x="0" y="0">.</tspan></text>
      <text id="Q" transform="translate(676 385)" fill="#666" font-size="18" font-family="SourceHanSansSC-Regular, Source Han Sans SC"><tspan x="0" y="0">Q</tspan></text>
      <text id="α" transform="translate(703 385)" fill="#666" font-size="18" font-family="SourceHanSansSC-Regular, Source Han Sans SC"><tspan x="0" y="0">α</tspan></text>
    </g>
    <g id="组_36972" data-name="组 36972" transform="translate(15 423)">
      <text id="B" transform="translate(689 386)" fill="#666" font-size="12" font-family="SourceHanSansSC-Regular, Source Han Sans SC"><tspan x="0" y="0">B</tspan></text>
      <text id="_2" data-name="2" transform="translate(715 386)" fill="#666" font-size="12" font-family="SourceHanSansSC-Regular, Source Han Sans SC"><tspan x="0" y="0">2</tspan></text>
      <text id="_.-2" data-name="." transform="translate(697 378)" fill="#666" font-size="18" font-family="SourceHanSansSC-Regular, Source Han Sans SC"><tspan x="0" y="0">.</tspan></text>
      <text id="Q-2" data-name="Q" transform="translate(675 385)" fill="#666" font-size="18" font-family="SourceHanSansSC-Regular, Source Han Sans SC"><tspan x="0" y="0">Q</tspan></text>
      <text id="α-2" data-name="α" transform="translate(703 385)" fill="#666" font-size="18" font-family="SourceHanSansSC-Regular, Source Han Sans SC"><tspan x="0" y="0">α</tspan></text>
    </g>
    <g id="组_36987" data-name="组 36987" transform="translate(-63 246)">
      <text id="N" transform="translate(684 386)" fill="#1a9fe7" font-size="12" font-family="SourceHanSansSC-Regular, Source Han Sans SC"><tspan x="0" y="0">N</tspan></text>
      <text id="_.-3" data-name="." transform="translate(692 380)" fill="#1a9fe7" font-size="18" font-family="SourceHanSansSC-Regular, Source Han Sans SC"><tspan x="0" y="0">.</tspan></text>
      <text id="_1-ε" data-name="(1-ε" transform="translate(697 383)" fill="#1a9fe7" font-size="14" font-family="SourceHanSansSC-Regular, Source Han Sans SC"><tspan x="0" y="0">(1-</tspan><tspan y="0" font-size="16">ε</tspan></text>
      <text id="_2_" data-name="2)" transform="translate(737 383)" fill="#1a9fe7" font-size="14" font-family="SourceHanSansSC-Regular, Source Han Sans SC"><tspan x="0" y="0">2)</tspan></text>
      <text id="_" data-name="/" transform="translate(731 383)" fill="#1a9fe7" font-size="14" font-family="SourceHanSansSC-Regular, Source Han Sans SC"><tspan x="0" y="0">/</tspan></text>
      <text id="U" transform="translate(671 385)" fill="#1a9fe7" font-size="18" font-family="SourceHanSansSC-Regular, Source Han Sans SC"><tspan x="0" y="0">U</tspan></text>
      <text id="_1-2" data-name="1" transform="translate(723 385)" fill="#1a9fe7" font-size="12" font-family="SourceHanSansSC-Regular, Source Han Sans SC"><tspan x="0" y="0">1</tspan></text>
    </g>
    <g id="组_36988" data-name="组 36988" transform="translate(141 199)">
      <text id="N-2" data-name="N" transform="translate(684 386)" fill="#1a9fe7" font-size="12" font-family="SourceHanSansSC-Regular, Source Han Sans SC"><tspan x="0" y="0">N</tspan></text>
      <text id="_.-4" data-name="." transform="translate(692 380)" fill="#1a9fe7" font-size="18" font-family="SourceHanSansSC-Regular, Source Han Sans SC"><tspan x="0" y="0">.</tspan></text>
      <text id="_1_ε" data-name="(1+ε" transform="translate(697 383)" fill="#1a9fe7" font-size="14" font-family="SourceHanSansSC-Regular, Source Han Sans SC"><tspan x="0" y="0">(1+</tspan><tspan y="0" font-size="16">ε</tspan></text>
      <text id="_2_2" data-name="2)" transform="translate(740 383)" fill="#1a9fe7" font-size="14" font-family="SourceHanSansSC-Regular, Source Han Sans SC"><tspan x="0" y="0">2)</tspan></text>
      <text id="_2-2" data-name="/" transform="translate(734 383)" fill="#1a9fe7" font-size="14" font-family="SourceHanSansSC-Regular, Source Han Sans SC"><tspan x="0" y="0">/</tspan></text>
      <text id="U-2" data-name="U" transform="translate(671 385)" fill="#1a9fe7" font-size="18" font-family="SourceHanSansSC-Regular, Source Han Sans SC"><tspan x="0" y="0">U</tspan></text>
      <text id="_1-3" data-name="1" transform="translate(726 385)" fill="#1a9fe7" font-size="12" font-family="SourceHanSansSC-Regular, Source Han Sans SC"><tspan x="0" y="0">1</tspan></text>
    </g>
    <path id="路径_51445" data-name="路径 51445" d="M668.167,502,873,697.166" transform="translate(-20 1.167)" fill="none" stroke="#1a9fe7" stroke-linecap="round" stroke-width="4" stroke-dasharray="8 8"/>
  </g>
</svg>
