<svg xmlns="http://www.w3.org/2000/svg" width="857.5" height="558" viewBox="0 0 857.5 558">
  <g id="曲线五段调压_截断_" data-name="曲线五段调压（截断）" transform="translate(-339.5 -309)">
    <g id="组_36143" data-name="组 36143" transform="translate(27 1515) rotate(-90)">
      <g id="组_36142" data-name="组 36142" transform="translate(1650 -30) rotate(90)">
        <path id="路径_51268" data-name="路径 51268" d="M4355,5880h839.5" transform="translate(-4012.5 -5136)" fill="none" stroke="#b2b2b2" stroke-width="2"/>
        <path id="多边形_2" data-name="多边形 2" d="M4.1,5.692a2,2,0,0,1,3.795,0l3.225,9.675A2,2,0,0,1,9.225,18H2.775a2,2,0,0,1-1.9-2.632Z" transform="translate(1200 738) rotate(90)" fill="#b2b2b2"/>
      </g>
      <path id="路径_51268-2" data-name="路径 51268" d="M4356,5880h540" transform="translate(-3708 -5156)" fill="none" stroke="#b2b2b2" stroke-width="2"/>
      <path id="多边形_2-2" data-name="多边形 2" d="M4.1,5.692a2,2,0,0,1,3.795,0l3.225,9.675A2,2,0,0,1,9.225,18H2.775a2,2,0,0,1-1.9-2.632Z" transform="translate(1206 718) rotate(90)" fill="#b2b2b2"/>
    </g>
    <path id="路径_51270" data-name="路径 51270" d="M4425.333,5609.334v212" transform="translate(-3973 -5212.334)" fill="none" stroke="#707070" stroke-width="1" stroke-dasharray="8 4"/>
    <path id="路径_51271" data-name="路径 51271" d="M4425.333,5609.333v176" transform="translate(-3870.333 -5176.333)" fill="none" stroke="#707070" stroke-width="1" stroke-dasharray="8 4"/>
    <path id="路径_51273" data-name="路径 51273" d="M4425.333,5609.333v175" transform="translate(-3476 -4999.333)" fill="none" stroke="#707070" stroke-width="1" stroke-dasharray="8 4"/>
    <path id="路径_51274" data-name="路径 51274" d="M4425.333,5609.333V5824" transform="translate(-3374 -5000.333)" fill="none" stroke="#707070" stroke-width="1" stroke-dasharray="8 4"/>
    <path id="路径_51272" data-name="路径 51272" d="M4425.333,5609.333V5908" transform="translate(6360.333 -4028.333) rotate(90)" fill="none" stroke="#707070" stroke-width="1" stroke-dasharray="8 4"/>
    <path id="路径_51448" data-name="路径 51448" d="M0,300.333V0" transform="translate(1051.333 821) rotate(90)" fill="none" stroke="#707070" stroke-width="1" stroke-dasharray="8 4"/>
    <text id="Q0" transform="translate(767 590)" fill="#666" font-size="18" font-family="SourceHanSansSC-Regular, Source Han Sans SC"><tspan x="0" y="0">Q</tspan><tspan y="0" font-size="12">0</tspan></text>
    <text id="Umin" transform="translate(435 639)" fill="#1a9fe7" font-size="18" font-family="SourceHanSansSC-Regular, Source Han Sans SC"><tspan x="0" y="0">U</tspan><tspan y="0" font-size="12">min</tspan></text>
    <text id="Umax" transform="translate(1031 592)" fill="#1a9fe7" font-size="18" font-family="SourceHanSansSC-Regular, Source Han Sans SC"><tspan x="0" y="0">U</tspan><tspan y="0" font-size="12">max</tspan></text>
    <text id="U_p.u._" data-name="U(p.u.)" transform="translate(1119 639)" fill="#666" font-size="18" font-family="SourceHanSansSC-Regular, Source Han Sans SC"><tspan x="0" y="0">U</tspan><tspan y="0" font-size="12">(p.u.)</tspan></text>
    <text id="Q_kVar_" data-name="Q(kVar)" transform="translate(767 360)" fill="#666" font-size="18" font-family="SourceHanSansSC-Regular, Source Han Sans SC"><tspan x="0" y="0">Q(kVar)</tspan></text>
    <path id="路径_51433" data-name="路径 51433" d="M360,415h92l102,36.619L650,545v81" transform="translate(0 -18)" fill="none" stroke="#1a9fe7" stroke-linecap="round" stroke-width="4"/>
    <path id="路径_51446" data-name="路径 51446" d="M698,626H608L506,589.381,410,496V415" transform="translate(443.002 195)" fill="none" stroke="#1a9fe7" stroke-linecap="round" stroke-width="4"/>
    <g id="组_36958" data-name="组 36958" transform="translate(15 -7)">
      <text id="A" transform="translate(690 386)" fill="#666" font-size="12" font-family="SourceHanSansSC-Regular, Source Han Sans SC"><tspan x="0" y="0">A</tspan></text>
      <text id="_1" data-name="1" transform="translate(715 386)" fill="#666" font-size="12" font-family="SourceHanSansSC-Regular, Source Han Sans SC"><tspan x="0" y="0">1</tspan></text>
      <text id="_." data-name="." transform="translate(697 378)" fill="#666" font-size="18" font-family="SourceHanSansSC-Regular, Source Han Sans SC"><tspan x="0" y="0">.</tspan></text>
      <text id="Q" transform="translate(676 385)" fill="#666" font-size="18" font-family="SourceHanSansSC-Regular, Source Han Sans SC"><tspan x="0" y="0">Q</tspan></text>
      <text id="α" transform="translate(703 385)" fill="#666" font-size="18" font-family="SourceHanSansSC-Regular, Source Han Sans SC"><tspan x="0" y="0">α</tspan></text>
    </g>
    <g id="组_36976" data-name="组 36976" transform="translate(15 441)">
      <text id="B" transform="translate(689 386)" fill="#666" font-size="12" font-family="SourceHanSansSC-Regular, Source Han Sans SC"><tspan x="0" y="0">B</tspan></text>
      <text id="_2" data-name="2" transform="translate(715 386)" fill="#666" font-size="12" font-family="SourceHanSansSC-Regular, Source Han Sans SC"><tspan x="0" y="0">2</tspan></text>
      <text id="_.-2" data-name="." transform="translate(697 378)" fill="#666" font-size="18" font-family="SourceHanSansSC-Regular, Source Han Sans SC"><tspan x="0" y="0">.</tspan></text>
      <text id="Q-2" data-name="Q" transform="translate(675 385)" fill="#666" font-size="18" font-family="SourceHanSansSC-Regular, Source Han Sans SC"><tspan x="0" y="0">Q</tspan></text>
      <text id="α-2" data-name="α" transform="translate(703 385)" fill="#666" font-size="18" font-family="SourceHanSansSC-Regular, Source Han Sans SC"><tspan x="0" y="0">α</tspan></text>
    </g>
    <g id="组_36968" data-name="组 36968" transform="translate(-65 -2)">
      <text id="δ" transform="translate(560 444)" fill="#666" font-size="18" font-family="SourceHanSansSC-Medium, Source Han Sans SC" font-weight="500"><tspan x="0" y="0">δ</tspan></text>
      <text id="_2-2" data-name="2" transform="translate(572 448)" fill="#666" font-size="14" font-family="SourceHanSansSC-Medium, Source Han Sans SC" font-weight="500"><tspan x="0" y="0">2</tspan></text>
    </g>
    <g id="组_36981" data-name="组 36981" transform="translate(436 344)">
      <text id="δ-2" data-name="δ" transform="translate(560 444)" fill="#666" font-size="18" font-family="SourceHanSansSC-Medium, Source Han Sans SC" font-weight="500"><tspan x="0" y="0">δ</tspan></text>
      <text id="_2-3" data-name="2" transform="translate(572 448)" fill="#666" font-size="14" font-family="SourceHanSansSC-Medium, Source Han Sans SC" font-weight="500"><tspan x="0" y="0">2</tspan></text>
    </g>
    <g id="组_36969" data-name="组 36969" transform="translate(57 35)">
      <text id="δ-3" data-name="δ" transform="translate(560 444)" fill="#666" font-size="18" font-family="SourceHanSansSC-Medium, Source Han Sans SC" font-weight="500"><tspan x="0" y="0">δ</tspan></text>
      <text id="_1-2" data-name="1" transform="translate(572 448)" fill="#666" font-size="14" font-family="SourceHanSansSC-Medium, Source Han Sans SC" font-weight="500"><tspan x="0" y="0">1</tspan></text>
    </g>
    <g id="组_36980" data-name="组 36980" transform="translate(309 308)">
      <text id="δ-4" data-name="δ" transform="translate(560 444)" fill="#666" font-size="18" font-family="SourceHanSansSC-Medium, Source Han Sans SC" font-weight="500"><tspan x="0" y="0">δ</tspan></text>
      <text id="_1-3" data-name="1" transform="translate(572 448)" fill="#666" font-size="14" font-family="SourceHanSansSC-Medium, Source Han Sans SC" font-weight="500"><tspan x="0" y="0">1</tspan></text>
    </g>
    <g id="组_36961" data-name="组 36961" transform="translate(-156 255)">
      <text id="N" transform="translate(684 386)" fill="#1a9fe7" font-size="12" font-family="SourceHanSansSC-Regular, Source Han Sans SC"><tspan x="0" y="0">N</tspan></text>
      <text id="_.-3" data-name="." transform="translate(692 380)" fill="#1a9fe7" font-size="18" font-family="SourceHanSansSC-Regular, Source Han Sans SC"><tspan x="0" y="0">.</tspan></text>
      <text id="_1-ε" data-name="(1-ε" transform="translate(697 383)" fill="#1a9fe7" font-size="14" font-family="SourceHanSansSC-Regular, Source Han Sans SC"><tspan x="0" y="0">(1-</tspan><tspan y="0" font-size="16">ε</tspan></text>
      <text id="_2_" data-name="2)" transform="translate(737 383)" fill="#1a9fe7" font-size="14" font-family="SourceHanSansSC-Regular, Source Han Sans SC"><tspan x="0" y="0">2)</tspan></text>
      <text id="_" data-name="/" transform="translate(731 383)" fill="#1a9fe7" font-size="14" font-family="SourceHanSansSC-Regular, Source Han Sans SC"><tspan x="0" y="0">/</tspan></text>
      <text id="U" transform="translate(671 385)" fill="#1a9fe7" font-size="18" font-family="SourceHanSansSC-Regular, Source Han Sans SC"><tspan x="0" y="0">U</tspan></text>
      <text id="_2-4" data-name="2" transform="translate(723 385)" fill="#1a9fe7" font-size="12" font-family="SourceHanSansSC-Regular, Source Han Sans SC"><tspan x="0" y="0">2</tspan></text>
    </g>
    <g id="组_36987" data-name="组 36987" transform="translate(-61 255)">
      <text id="N-2" data-name="N" transform="translate(684 386)" fill="#1a9fe7" font-size="12" font-family="SourceHanSansSC-Regular, Source Han Sans SC"><tspan x="0" y="0">N</tspan></text>
      <text id="_.-4" data-name="." transform="translate(692 380)" fill="#1a9fe7" font-size="18" font-family="SourceHanSansSC-Regular, Source Han Sans SC"><tspan x="0" y="0">.</tspan></text>
      <text id="_1-ε-2" data-name="(1-ε" transform="translate(697 383)" fill="#1a9fe7" font-size="14" font-family="SourceHanSansSC-Regular, Source Han Sans SC"><tspan x="0" y="0">(1-</tspan><tspan y="0" font-size="16">ε</tspan></text>
      <text id="_2_2" data-name="2)" transform="translate(737 383)" fill="#1a9fe7" font-size="14" font-family="SourceHanSansSC-Regular, Source Han Sans SC"><tspan x="0" y="0">2)</tspan></text>
      <text id="_2-5" data-name="/" transform="translate(731 383)" fill="#1a9fe7" font-size="14" font-family="SourceHanSansSC-Regular, Source Han Sans SC"><tspan x="0" y="0">/</tspan></text>
      <text id="U-2" data-name="U" transform="translate(671 385)" fill="#1a9fe7" font-size="18" font-family="SourceHanSansSC-Regular, Source Han Sans SC"><tspan x="0" y="0">U</tspan></text>
      <text id="_1-4" data-name="1" transform="translate(723 385)" fill="#1a9fe7" font-size="12" font-family="SourceHanSansSC-Regular, Source Han Sans SC"><tspan x="0" y="0">1</tspan></text>
    </g>
    <g id="组_36988" data-name="组 36988" transform="translate(140 207)">
      <text id="N-3" data-name="N" transform="translate(684 386)" fill="#1a9fe7" font-size="12" font-family="SourceHanSansSC-Regular, Source Han Sans SC"><tspan x="0" y="0">N</tspan></text>
      <text id="_.-5" data-name="." transform="translate(692 380)" fill="#1a9fe7" font-size="18" font-family="SourceHanSansSC-Regular, Source Han Sans SC"><tspan x="0" y="0">.</tspan></text>
      <text id="_1_ε" data-name="(1+ε" transform="translate(697 383)" fill="#1a9fe7" font-size="14" font-family="SourceHanSansSC-Regular, Source Han Sans SC"><tspan x="0" y="0">(1+</tspan><tspan y="0" font-size="16">ε</tspan></text>
      <text id="_2_3" data-name="2)" transform="translate(740 383)" fill="#1a9fe7" font-size="14" font-family="SourceHanSansSC-Regular, Source Han Sans SC"><tspan x="0" y="0">2)</tspan></text>
      <text id="_3" data-name="/" transform="translate(734 383)" fill="#1a9fe7" font-size="14" font-family="SourceHanSansSC-Regular, Source Han Sans SC"><tspan x="0" y="0">/</tspan></text>
      <text id="U-3" data-name="U" transform="translate(671 385)" fill="#1a9fe7" font-size="18" font-family="SourceHanSansSC-Regular, Source Han Sans SC"><tspan x="0" y="0">U</tspan></text>
      <text id="_1-5" data-name="1" transform="translate(726 385)" fill="#1a9fe7" font-size="12" font-family="SourceHanSansSC-Regular, Source Han Sans SC"><tspan x="0" y="0">1</tspan></text>
    </g>
    <g id="组_36989" data-name="组 36989" transform="translate(236 207)">
      <text id="N-4" data-name="N" transform="translate(684 386)" fill="#1a9fe7" font-size="12" font-family="SourceHanSansSC-Regular, Source Han Sans SC"><tspan x="0" y="0">N</tspan></text>
      <text id="_.-6" data-name="." transform="translate(692 380)" fill="#1a9fe7" font-size="18" font-family="SourceHanSansSC-Regular, Source Han Sans SC"><tspan x="0" y="0">.</tspan></text>
      <text id="_1_ε-2" data-name="(1+ε" transform="translate(697 383)" fill="#1a9fe7" font-size="14" font-family="SourceHanSansSC-Regular, Source Han Sans SC"><tspan x="0" y="0">(1+</tspan><tspan y="0" font-size="16">ε</tspan></text>
      <text id="_2_4" data-name="2)" transform="translate(740 383)" fill="#1a9fe7" font-size="14" font-family="SourceHanSansSC-Regular, Source Han Sans SC"><tspan x="0" y="0">2)</tspan></text>
      <text id="_4" data-name="/" transform="translate(734 383)" fill="#1a9fe7" font-size="14" font-family="SourceHanSansSC-Regular, Source Han Sans SC"><tspan x="0" y="0">/</tspan></text>
      <text id="U-4" data-name="U" transform="translate(671 385)" fill="#1a9fe7" font-size="18" font-family="SourceHanSansSC-Regular, Source Han Sans SC"><tspan x="0" y="0">U</tspan></text>
      <text id="_2-6" data-name="2" transform="translate(726 385)" fill="#1a9fe7" font-size="12" font-family="SourceHanSansSC-Regular, Source Han Sans SC"><tspan x="0" y="0">2</tspan></text>
    </g>
    <path id="路径_51444" data-name="路径 51444" d="M669.167,622h203" transform="translate(-19.167 -13)" fill="none" stroke="#1a9fe7" stroke-linecap="round" stroke-width="4"/>
    <path id="路径_51445" data-name="路径 51445" d="M648.167,503.333l205,164" transform="translate(1.833 25.167)" fill="none" stroke="#1a9fe7" stroke-linecap="round" stroke-width="4" stroke-dasharray="8 8"/>
  </g>
</svg>
