<svg xmlns="http://www.w3.org/2000/svg" width="857.5" height="557" viewBox="0 0 857.5 557">
  <g id="三段电压曲线" transform="translate(-339.5 -310)">
    <g id="组_36143" data-name="组 36143" transform="translate(27 1515) rotate(-90)">
      <g id="组_36142" data-name="组 36142" transform="translate(841.649 312.5) rotate(90)">
        <path id="路径_51268" data-name="路径 51268" d="M0,0H839.5" transform="translate(0 6)" fill="none" stroke="#b2b2b2" stroke-width="2"/>
        <path id="多边形_2" data-name="多边形 2" d="M4.1,5.692a2,2,0,0,1,3.795,0l3.225,9.675A2,2,0,0,1,9.225,18H2.775a2,2,0,0,1-1.9-2.632Z" transform="translate(857.5 0) rotate(90)" fill="#b2b2b2"/>
      </g>
      <path id="路径_51268-2" data-name="路径 51268" d="M4356,5880h539" transform="translate(-3708 -5156)" fill="none" stroke="#b2b2b2" stroke-width="2"/>
      <path id="多边形_2-2" data-name="多边形 2" d="M4.1,5.692a2,2,0,0,1,3.795,0l3.225,9.675A2,2,0,0,1,9.225,18H2.775a2,2,0,0,1-1.9-2.632Z" transform="translate(1205 718) rotate(90)" fill="#b2b2b2"/>
    </g>
    <path id="路径_51270" data-name="路径 51270" d="M4425.333,5609.334V5882" transform="translate(-3914 -5205)" fill="none" stroke="#707070" stroke-width="1" stroke-dasharray="8 4"/>
    <path id="路径_51271" data-name="路径 51271" d="M4425.333,5609.334v94" transform="translate(-3819 -5026.333)" fill="none" stroke="#707070" stroke-width="1" stroke-dasharray="8 4"/>
    <path id="路径_51273" data-name="路径 51273" d="M4425.333,5609.334v94" transform="translate(-3531 -5026.333)" fill="none" stroke="#707070" stroke-width="1" stroke-dasharray="8 4"/>
    <path id="路径_51274" data-name="路径 51274" d="M4425.333,5609.333V5691" transform="translate(-3437.334 -4927.333)" fill="none" stroke="#707070" stroke-width="1" stroke-dasharray="8 4"/>
    <path id="路径_51272" data-name="路径 51272" d="M4425.333,5609.333V5849" transform="translate(6360.333 -4022.333) rotate(90)" fill="none" stroke="#707070" stroke-width="1" stroke-dasharray="8 4"/>
    <path id="路径_51275" data-name="路径 51275" d="M4425.333,5609.333v237" transform="translate(6598.334 -3662.333) rotate(90)" fill="none" stroke="#707070" stroke-width="1" stroke-dasharray="8 4"/>
    <text id="Q0" transform="translate(715 565)" fill="#666" font-size="18" font-family="SourceHanSansSC-Regular, Source Han Sans SC"><tspan x="0" y="0">Q</tspan><tspan y="0" font-size="12">0</tspan></text>
    <text id="Umin" transform="translate(494 709)" fill="#1a9fe7" font-size="18" font-family="SourceHanSansSC-Regular, Source Han Sans SC"><tspan x="0" y="0">U</tspan><tspan y="0" font-size="12">min</tspan></text>
    <text id="Umax" transform="translate(1005 709)" fill="#1a9fe7" font-size="18" font-family="SourceHanSansSC-Regular, Source Han Sans SC"><tspan x="0" y="0">U</tspan><tspan y="0" font-size="12">max</tspan></text>
    <text id="U_p.u._" data-name="U(p.u.)" transform="translate(1119 709)" fill="#666" font-size="18" font-family="SourceHanSansSC-Regular, Source Han Sans SC"><tspan x="0" y="0">U</tspan><tspan y="0" font-size="12">(p.u.)</tspan></text>
    <text id="Q_kVar_" data-name="Q(kVar)" transform="translate(765 360)" fill="#666" font-size="18" font-family="SourceHanSansSC-Regular, Source Han Sans SC"><tspan x="0" y="0">Q(kVar)</tspan></text>
    <path id="路径_51430" data-name="路径 51430" d="M4784,5688.667H4638.342l-94.214-180H4402" transform="translate(-4032.001 -5105.667)" fill="none" stroke="#1a9fe7" stroke-linecap="round" stroke-width="4"/>
    <path id="路径_51431" data-name="路径 51431" d="M4784,5738.667H4638.342l-94.214-180H4402" transform="translate(-3650 -4975.667)" fill="none" stroke="#1a9fe7" stroke-linecap="round" stroke-width="4"/>
    <g id="组_36958" data-name="组 36958" transform="translate(15)">
      <text id="A" transform="translate(690 386)" fill="#666" font-size="12" font-family="SourceHanSansSC-Regular, Source Han Sans SC"><tspan x="0" y="0">A</tspan></text>
      <text id="_1" data-name="1" transform="translate(715 386)" fill="#666" font-size="12" font-family="SourceHanSansSC-Regular, Source Han Sans SC"><tspan x="0" y="0">1</tspan></text>
      <text id="_." data-name="." transform="translate(697 378)" fill="#666" font-size="18" font-family="SourceHanSansSC-Regular, Source Han Sans SC"><tspan x="0" y="0">.</tspan></text>
      <text id="Q" transform="translate(676 385)" fill="#666" font-size="18" font-family="SourceHanSansSC-Regular, Source Han Sans SC"><tspan x="0" y="0">Q</tspan></text>
      <text id="α" transform="translate(703 385)" fill="#666" font-size="18" font-family="SourceHanSansSC-Regular, Source Han Sans SC"><tspan x="0" y="0">α</tspan></text>
    </g>
    <g id="组_36972" data-name="组 36972" transform="translate(15 382)">
      <text id="B" transform="translate(689 386)" fill="#666" font-size="12" font-family="SourceHanSansSC-Regular, Source Han Sans SC"><tspan x="0" y="0">B</tspan></text>
      <text id="_2" data-name="2" transform="translate(715 386)" fill="#666" font-size="12" font-family="SourceHanSansSC-Regular, Source Han Sans SC"><tspan x="0" y="0">2</tspan></text>
      <text id="_.-2" data-name="." transform="translate(697 378)" fill="#666" font-size="18" font-family="SourceHanSansSC-Regular, Source Han Sans SC"><tspan x="0" y="0">.</tspan></text>
      <text id="Q-2" data-name="Q" transform="translate(675 385)" fill="#666" font-size="18" font-family="SourceHanSansSC-Regular, Source Han Sans SC"><tspan x="0" y="0">Q</tspan></text>
      <text id="α-2" data-name="α" transform="translate(703 385)" fill="#666" font-size="18" font-family="SourceHanSansSC-Regular, Source Han Sans SC"><tspan x="0" y="0">α</tspan></text>
    </g>
    <g id="组_36987" data-name="组 36987" transform="translate(-104 325)">
      <text id="N" transform="translate(684 386)" fill="#1a9fe7" font-size="12" font-family="SourceHanSansSC-Regular, Source Han Sans SC"><tspan x="0" y="0">N</tspan></text>
      <text id="_.-3" data-name="." transform="translate(692 380)" fill="#1a9fe7" font-size="18" font-family="SourceHanSansSC-Regular, Source Han Sans SC"><tspan x="0" y="0">.</tspan></text>
      <text id="_1-ε" data-name="(1-ε" transform="translate(697 383)" fill="#1a9fe7" font-size="14" font-family="SourceHanSansSC-Regular, Source Han Sans SC"><tspan x="0" y="0">(1-</tspan><tspan y="0" font-size="16">ε</tspan></text>
      <text id="_2_" data-name="2)" transform="translate(737 383)" fill="#1a9fe7" font-size="14" font-family="SourceHanSansSC-Regular, Source Han Sans SC"><tspan x="0" y="0">2)</tspan></text>
      <text id="_" data-name="/" transform="translate(731 383)" fill="#1a9fe7" font-size="14" font-family="SourceHanSansSC-Regular, Source Han Sans SC"><tspan x="0" y="0">/</tspan></text>
      <text id="U" transform="translate(671 385)" fill="#1a9fe7" font-size="18" font-family="SourceHanSansSC-Regular, Source Han Sans SC"><tspan x="0" y="0">U</tspan></text>
      <text id="_1-2" data-name="1" transform="translate(723 385)" fill="#1a9fe7" font-size="12" font-family="SourceHanSansSC-Regular, Source Han Sans SC"><tspan x="0" y="0">1</tspan></text>
    </g>
    <g id="组_36988" data-name="组 36988" transform="translate(182 325)">
      <text id="N-2" data-name="N" transform="translate(684 386)" fill="#1a9fe7" font-size="12" font-family="SourceHanSansSC-Regular, Source Han Sans SC"><tspan x="0" y="0">N</tspan></text>
      <text id="_.-4" data-name="." transform="translate(692 380)" fill="#1a9fe7" font-size="18" font-family="SourceHanSansSC-Regular, Source Han Sans SC"><tspan x="0" y="0">.</tspan></text>
      <text id="_1_ε" data-name="(1+ε" transform="translate(697 383)" fill="#1a9fe7" font-size="14" font-family="SourceHanSansSC-Regular, Source Han Sans SC"><tspan x="0" y="0">(1+</tspan><tspan y="0" font-size="16">ε</tspan></text>
      <text id="_2_2" data-name="2)" transform="translate(740 383)" fill="#1a9fe7" font-size="14" font-family="SourceHanSansSC-Regular, Source Han Sans SC"><tspan x="0" y="0">2)</tspan></text>
      <text id="_2-2" data-name="/" transform="translate(734 383)" fill="#1a9fe7" font-size="14" font-family="SourceHanSansSC-Regular, Source Han Sans SC"><tspan x="0" y="0">/</tspan></text>
      <text id="U-2" data-name="U" transform="translate(671 385)" fill="#1a9fe7" font-size="18" font-family="SourceHanSansSC-Regular, Source Han Sans SC"><tspan x="0" y="0">U</tspan></text>
      <text id="_1-3" data-name="1" transform="translate(726 385)" fill="#1a9fe7" font-size="12" font-family="SourceHanSansSC-Regular, Source Han Sans SC"><tspan x="0" y="0">1</tspan></text>
    </g>
  </g>
</svg>
