<?xml version="1.0" standalone="no"?>
<!DOCTYPE svg PUBLIC "-//W3C//DTD SVG 1.1//EN" "http://www.w3.org/Graphics/SVG/1.1/DTD/svg11.dtd" >
<svg xmlns="http://www.w3.org/2000/svg">
  <metadata>Created by iconfont</metadata>
  <defs>
  <font id="iconfont" horiz-adv-x="1024">
    <font-face
      font-family="iconfont"
      font-weight="400"
      font-stretch="normal"
      units-per-em="1024"
      ascent="896"
      descent="-128"
    />
      <missing-glyph />
      
      <glyph glyph-name="quanping" unicode="&#58923;" d="M43.163052 214.21952a41.853391 41.853391 0 0 0 41.904557-41.853391v-250.711021a41.904556 41.904556 0 0 0-41.904557-41.904556 41.904556 41.904556 0 0 0-41.904556 41.853391v250.711021a41.853391 41.853391 0 0 0 41.904556 41.853391zM44.544521-36.696163h251.887828a41.904556 41.904556 0 1 0 0-83.757947H44.544521a41.904556 41.904556 0 1 0 0 83.757947zM14.766192-106.230097a41.699894 41.699894 0 0 0 0.972145 59.147335l341.376312 329.557078a41.904556 41.904556 0 1 0 58.379852-60.017148l-341.427478-329.608244a42.058053 42.058053 0 0 0-59.300831 0.972145zM982.561898 890.422959a41.904556 41.904556 0 0 0 41.904556-41.904556v-250.711021a41.904556 41.904556 0 0 0-41.904556-41.904557 41.904556 41.904556 0 0 0-41.904557 41.904557v250.711021a41.904556 41.904556 0 0 0 41.904557 41.904556zM729.394932 890.422959h251.938993a41.904556 41.904556 0 0 0 0-83.757947h-251.938993a41.904556 41.904556 0 0 0 0 83.757947zM1011.061089 876.301277a41.699894 41.699894 0 0 0-0.972145-59.147335L668.456804 487.596864a41.904556 41.904556 0 1 0-58.379852 60.017148L951.760258 877.222256a42.058053 42.058053 0 0 0 59.300831-0.869814zM49.9169 896h250.711021a41.904556 41.904556 0 0 0 41.904556-41.904556 41.904556 41.904556 0 0 0-41.904556-41.904557h-250.711021A41.904556 41.904556 0 0 0 8.217006 853.993113 41.904556 41.904556 0 0 0 49.9169 896zM49.9169 894.465035a41.904556 41.904556 0 0 0 41.904557-41.904557V600.774982a41.904556 41.904556 0 0 0-83.757948 0V852.713975A41.904556 41.904556 0 0 0 49.9169 894.465035zM22.185191 882.492304a41.699894 41.699894 0 0 0 59.147335-0.972145l329.710575-341.376312a41.904556 41.904556 0 1 0-60.017148-58.379852L21.417709 823.191473A42.058053 42.058053 0 0 0 22.185191 882.492304z m703.986314-926.095811h250.71102a41.904556 41.904556 0 0 0 41.904557-41.904557 41.904556 41.904556 0 0 0-41.904557-41.904556h-250.71102a41.904556 41.904556 0 0 0-41.904557 41.904556 41.904556 41.904556 0 0 0 42.058053 42.109219zM977.087187 209.716955a41.904556 41.904556 0 0 0 41.904557-41.904557v-251.836662a41.904556 41.904556 0 1 0-83.757947 0V167.914729a41.853391 41.853391 0 0 0 41.85339 41.802226zM1004.870062-113.853759a41.699894 41.699894 0 0 0-59.147335 0.972145l-329.608244 341.63214A41.904556 41.904556 0 1 0 676.131632 287.130378l329.608244-341.63214a42.058053 42.058053 0 0 0-0.869814-59.351997z"  horiz-adv-x="1025" />
      
      <glyph glyph-name="quanpingshousuo" unicode="&#58924;" d="M799.232 562.2272h184.7808a35.84 35.84 0 0 0 38.4-32.4096 37.7856 37.7856 0 0 0-10.24-32.4096 35.4304 35.4304 0 0 0-31.7952-10.8032h-274.688a33.8944 33.8944 0 0 0-30.72 10.8032 36.3008 36.3008 0 0 0-10.24 31.232V806.912a34.7648 34.7648 0 0 0 12.5952 27.5968 36.7104 36.7104 0 0 0 27.5968 9.6256 40.96 40.96 0 0 0 25.6-11.4176 38.4512 38.4512 0 0 0 12.032-25.6v-193.28L940.4928 867.1232 948.8896 875.52a69.4272 69.4272 0 0 0 12.032 13.2096 40.3456 40.3456 0 0 0 19.2 7.2192l3.584-1.1776a45.4656 45.4656 0 0 0 17.408-2.4064 40.96 40.96 0 0 0 12.5952-10.8032 42.24 42.24 0 0 0 8.3968-28.8256 79.0016 79.0016 0 0 0-27.5968-45.6192z m-440.32-600.2176a37.9904 37.9904 0 0 0-10.8032-26.9824 35.84 35.84 0 0 0-26.9824-11.4176 40.96 40.96 0 0 0-28.16 10.8032 39.6288 39.6288 0 0 0-13.2096 27.5968v192.0512l-196.7104-249.7024a98.304 98.304 0 0 0-18.0224-22.8352 38.912 38.912 0 0 0-19.8144-9.0112 39.8336 39.8336 0 0 0-21.6064 2.4064 33.8432 33.8432 0 0 0-16.1792 13.7728 40.96 40.96 0 0 0-5.9904 33.5872 87.04 87.04 0 0 0 14.3872 22.8352l209.92 259.2768H38.7072a38.912 38.912 0 0 0-38.4 40.96 37.9904 37.9904 0 0 0 12.032 25.6 37.12 37.12 0 0 0 26.4192 10.24h279.5008a37.0176 37.0176 0 0 0 30.72-12.032 36.3008 36.3008 0 0 0 10.24-31.232v-275.8144z m-40.96 524.5952H38.7584a36.4032 36.4032 0 0 0-28.16 12.5952 35.84 35.84 0 0 0-9.5744 28.8256 38.7072 38.7072 0 0 0 12.5952 25.6 32.4608 32.4608 0 0 0 25.1904 8.3968h184.7808l-184.7808 230.4q-15.36 19.2-30.0032 40.96A36.864 36.864 0 0 0 1.024 861.5936 34.9184 34.9184 0 0 0 14.7968 886.784 40.96 40.96 0 0 0 39.9872 895.7952a38.3488 38.3488 0 0 0 24.0128-8.3968L282.368 618.496V806.912a34.048 34.048 0 0 0 10.8032 25.6 41.8304 41.8304 0 0 0 26.4192 11.4176 33.8432 33.8432 0 0 0 26.9824-9.6256 40.96 40.96 0 0 0 12.5952-27.5968V529.408a40.96 40.96 0 0 0-10.8032-31.232 35.3792 35.3792 0 0 0-30.0032-12.032z m387.4304-205.2608h281.9072a37.9392 37.9392 0 0 0 35.3792-41.984 37.0688 37.0688 0 0 0-13.2096-25.1904 45.1072 45.1072 0 0 0-25.6-10.8032h-171.4176l178.7392-236.4928a165.6832 165.6832 0 0 0 31.232-43.2128 39.7824 39.7824 0 0 0-0.6144-24.6272 38.7072 38.7072 0 0 0-37.2224-27.0336 40.96 40.96 0 0 0-23.3984 7.2192q-16.7936 18.0224-32.4096 37.2224l-185.9584 243.712v-198.0416a41.6256 41.6256 0 0 0-12.5952-26.9824 37.5808 37.5808 0 0 0-27.5968-11.4176 35.84 35.84 0 0 0-26.9824 11.4176 37.9904 37.9904 0 0 0-10.8032 26.9824v276.0704a40.96 40.96 0 0 0 10.8032 31.232 35.3792 35.3792 0 0 0 30.0032 12.032z"  horiz-adv-x="1024" />
      
      <glyph glyph-name="ic_jilu" unicode="&#58922;" d="M896 896a128 128 0 0 0 128-128v-365.184a42.688 42.688 0 1 0-85.312 0V554.688H85.312V0a42.624 42.624 0 0 1 39.488-42.56h338.176a42.688 42.688 0 1 0 0-85.312H128a128 128 0 0 0-128 128V768a128 128 0 0 0 128 128z m-108.8-541.184a230.4 230.4 0 0 0 95.488-20.608 42.688 42.688 0 0 0-35.264-77.696 145.088 145.088 0 0 1-60.224 12.8 152.256 152.256 0 1 1 148.672-152.192 42.688 42.688 0 0 0 85.312 0A233.984 233.984 0 1 0 787.2 354.816z m-433.664-141.504a42.688 42.688 0 0 0 0-85.312H213.312a42.688 42.688 0 1 0 0 85.312h140.16z m179.84 213.312a42.688 42.688 0 0 0 0-85.312h-320a42.688 42.688 0 1 0 0 85.312z m362.688 384H128A42.688 42.688 0 0 1 85.312 768v-128h853.376V768a42.688 42.688 0 0 1-39.488 42.56z"  horiz-adv-x="1024" />
      
      <glyph glyph-name="ic_celve" unicode="&#58902;" d="M432.45504 399.872h318.784a36.352 36.352 0 0 1 0 72.704H432.45504a36.352 36.352 0 0 1 0-72.704z m0 163.328h318.784a36.352 36.352 0 0 1 0 72.704H432.45504a36.352 36.352 0 0 1 0-72.704z m559.552-327.68a111.36 111.36 0 0 1-44.032 27.648l-2.56 1.024V778.24A116.544 116.544 0 0 1 830.02304 896H353.09504A115.2 115.2 0 0 1 245.12704 817.152l-1.024-2.56h-49.664a116.544 116.544 0 0 1-115.2-117.76v-432.64l-2.56-1.024A117.952 117.952 0 0 1 0.00704 152.576v-162.816A116.544 116.544 0 0 1 115.20704-128h793.6a116.544 116.544 0 0 1 115.2 117.76v162.304a118.528 118.528 0 0 1-32 83.2zM309.12704 778.24a44.032 44.032 0 0 0 43.52 44.8h321.344l4.096 1.024v-1.024h152.512a44.032 44.032 0 0 0 43.52-44.8v-507.904H624.83904a36.48 36.48 0 0 1-34.304-24.064 82.816 82.816 0 0 0-157.632 0 35.84 35.84 0 0 1-33.792 24.064H309.12704zM150.98304 696.832a44.032 44.032 0 0 0 43.52 44.8h43.52v-471.04h-87.04v426.24z m759.424-752.128H115.65504a44.032 44.032 0 0 0-43.52 44.8v162.56a44.032 44.032 0 0 0 43.52 44.8h260.992l1.024-2.048a152.96 152.96 0 0 1 268.16 0l1.024 2.048h263.552a44.032 44.032 0 0 0 43.52-44.8l0.512-162.816a45.504 45.504 0 0 0-44.032-44.544z"  horiz-adv-x="1024" />
      
      <glyph glyph-name="ic_lic" unicode="&#58903;" d="M534.011336 815.760361a20.603635 20.603635 0 0 0 6.078712-0.89581l343.351253-99.946824a20.091743 20.091743 0 0 0 14.844855-19.195933V268.93222a213.970665 213.970665 0 0 0-33.720856-115.175597 226.192076 226.192076 0 0 0-91.116694-81.326769l-239.43727-117.479109-239.373282 117.927014a226.192076 226.192076 0 0 0-91.116695 81.326769 214.226611 214.226611 0 0 0-33.720855 115.175597V695.78578a19.899784 19.899784 0 0 0 14.844854 19.195933l343.479226 99.946824a19.899784 19.899784 0 0 0 5.950739 0.89581m0 80.239a107.177292 107.177292 0 0 1-30.265588-4.287092L160.202537 791.701458a100.778648 100.778648 0 0 1-74.096301-95.979664V268.93222a299.584526 299.584526 0 0 1 170.267925-267.591304L505.473383-121.385082a65.138199 65.138199 0 0 1 57.20388 0l248.971249 122.598025A299.584526 299.584526 0 0 1 981.916436 268.93222V695.78578a100.778648 100.778648 0 0 1-74.0963 95.979665L564.34091 891.712268A107.945129 107.945129 0 0 1 534.011336 895.99936zM496.451294 115.236784a40.055513 40.055513 0 0 0-29.369777 12.797289L339.49255 265.093033a47.030036 47.030036 0 0 0 0 63.090633 39.479635 39.479635 0 0 0 58.739555 0l98.219189-105.513644 238.285514 255.945771a39.607608 39.607608 0 0 0 58.739554 0 46.902063 46.902063 0 0 0 0-63.090632l-267.65529-287.491088a40.247473 40.247473 0 0 0-29.369778-12.797289z m421.926605 399.33939a41.655174 41.655174 0 0 0-12.029452 1.919593L554.934903 630.903527a61.107053 61.107053 0 0 1-37.879974 0L165.641385 516.559754a41.079296 41.079296 0 0 0-51.765033 29.753696 45.174429 45.174429 0 0 0 27.70613 55.604219l351.413544 114.343773a138.338689 138.338689 0 0 0 85.99778 0l351.413544-114.343773a45.238415 45.238415 0 0 0 27.70613-55.604219 42.103079 42.103079 0 0 0-39.735581-31.737276z"  horiz-adv-x="1024" />
      
      <glyph glyph-name="ic_yonghu" unicode="&#58904;" d="M405.111278-127.808036h-364.731613a42.93595 42.93595 0 0 0-40.312441 45.17553 573.780416 573.780416 0 0 0 36.537149 201.754171A526.301319 526.301319 0 0 0 135.849765 284.082734a464.232956 464.232956 0 0 0 147.172405 111.275136 429.615447 429.615447 0 0 0 55.73355 21.755921 252.176717 252.176717 0 1 0 287.94601 48.758858 254.160345 254.160345 0 0 0-76.785603-52.470162 429.615447 429.615447 0 0 0 50.550522-20.092233 461.353496 461.353496 0 0 0 147.172405-110.635256 522.206086 522.206086 0 0 0 99.437356-164.321189 565.334 565.334 0 0 0 36.409173-201.114291 42.871962 42.871962 0 0 0-40.120477-44.791602z m384.567894 89.583203a12.093732 12.093732 0 0 1 11.261888 14.333313 434.158595 434.158595 0 0 1-108.779604 243.154408 312.005499 312.005499 0 0 1-499.106417 1.215772 437.485971 437.485971 0 0 1-109.22752-244.178216 12.7976 12.7976 0 0 1 11.453852-14.589265h387.511342zM277.199262 644.207211A171.807786 171.807786 0 1 1 449.007048 816.014997a171.99975 171.99975 0 0 1-171.807786-171.935762z m496.098981-263.758545a44.791602 44.791602 0 0 0 0 89.583203h129.191777a44.791602 44.791602 0 0 0 0-89.583203z m-1.27976 160.80185a44.791602 44.791602 0 0 0 0 89.583203h169.888146a44.791602 44.791602 0 0 0 0-89.583203z m0 160.993813a44.791602 44.791602 0 0 0 0 89.583203h211.7363a44.791602 44.791602 0 0 0 0-89.583203z"  horiz-adv-x="1028" />
      
      <glyph glyph-name="ic_dianzhancanshu" unicode="&#58905;" d="M45.60283-127.93602a43.250484 43.250484 0 1 0 0 86.436988h937.371072a43.250484 43.250484 0 0 0 0-86.436988z m200.12946 172.234177v0.6398A241.076664 241.076664 0 0 0 4.847566 285.82268V655.051296A241.076664 241.076664 0 0 0 245.73229 895.93602h537.432052a241.076664 241.076664 0 0 0 240.884724-240.884724v-369.868416a241.076664 241.076664 0 0 0-240.884724-240.884723z m-153.552015 610.689159v-369.868416a154.319775 154.319775 0 0 1 153.552015-153.552015h537.432052a154.319775 154.319775 0 0 1 153.552015 153.552015V654.987316a154.319775 154.319775 0 0 1-153.552015 153.552015h-537.432052a154.319775 154.319775 0 0 1-153.743955-153.615995z m340.053733-345.044173a45.233864 45.233864 0 0 0-15.867042 60.333146l121.945892 218.747641a42.994564 42.994564 0 0 0 37.428304 22.329022 39.795564 39.795564 0 0 0 21.689222-6.398 45.553764 45.553764 0 0 0 15.739082-60.972946l-121.562012-218.555702a44.786004 44.786004 0 0 0-37.428304-21.945142 38.388004 38.388004 0 0 0-22.201062 6.398001z m247.026804 16.762761a45.681724 45.681724 0 0 0 0 62.252546l67.626867 69.418307-64.491847 66.603187-5.37432 5.37432a42.546704 42.546704 0 0 0-9.916901 31.990003 49.392565 49.392565 0 0 0 14.651421 30.198563 43.442424 43.442424 0 0 0 28.087223 10.940581 42.866604 42.866604 0 0 0 32.885723-15.739081l92.387129-100.89647a45.105904 45.105904 0 0 0 0-62.828366l-94.818369-97.76145a42.226804 42.226804 0 0 0-61.036926 0.38388z m-393.029178-0.38388L194.292365 427.218494a44.786004 44.786004 0 0 0 0 62.636426l94.882349 98.65717a43.954264 43.954264 0 0 0 30.582443 13.243861 42.866604 42.866604 0 0 0 30.454483-13.243861 45.297844 45.297844 0 0 0 0-62.252546l-68.010747-70.378007 64.491847-66.603186a45.553764 45.553764 0 0 0 0-62.252547 40.243424 40.243424 0 0 0-29.750703-13.243861 44.274164 44.274164 0 0 0-30.902343 12.540081z"  horiz-adv-x="1026" />
      
      <glyph glyph-name="ic_guanyu" unicode="&#58906;" d="M0 384a512 512 0 0 1 512-512 51.2 51.2 0 0 1 0 102.4A409.6 409.6 0 1 0 921.6 384a394.624 394.624 0 0 0-119.936-289.664 51.2 51.2 0 1 1 72.384-72.384A493.312 493.312 0 0 1 1024 384 512 512 0 0 1 0 384zM460.544 436.608a51.456 51.456 0 1 0 102.912 0v-308.8a51.456 51.456 0 1 0-102.912 0zM563.456 588.928a51.2 51.2 0 1 0-51.2 51.2 51.2 51.2 0 0 0 51.2-51.2z"  horiz-adv-x="1024" />
      
      <glyph glyph-name="ic_guzhangjilu" unicode="&#58907;" d="M990.521896-127.808038h-230.35393a35.44891 35.44891 0 0 0-33.401319 37.176564v8.254349a35.44891 35.44891 0 0 0 33.401319 37.176565h230.35393a35.44891 35.44891 0 0 0 33.401319-37.176565v-8.254349a35.44891 35.44891 0 0 0-33.401319-37.176564z m0 123.815237h-230.35393a35.44891 35.44891 0 0 0-33.401319 37.176564v8.254349a35.44891 35.44891 0 0 0 33.401319 37.432514h230.35393a35.44891 35.44891 0 0 0 33.401319-37.176565v-8.254349a35.44891 35.44891 0 0 0-33.401319-37.752449z m0 123.815237h-230.35393a35.44891 35.44891 0 0 0-33.401319 37.176564v8.254349a35.44891 35.44891 0 0 0 33.401319 37.176565h230.35393a35.44891 35.44891 0 0 0 33.401319-37.176565v-8.254349a35.44891 35.44891 0 0 0-33.401319-37.176564z m-478.496301 33.017396a58.164367 58.164367 0 0 0 0-115.624875 58.164367 58.164367 0 0 0 0 115.624875z m-59.572086 396.336733a67.378524 67.378524 0 0 0 31.993602 58.9962 54.389122 54.389122 0 0 0 61.811637-4.863027 69.554089 69.554089 0 0 0 24.25115-63.475305l-21.4997-304.45111a37.304539 37.304539 0 1 0-74.225155 0l-21.755649 304.195161a75.312937 75.312937 0 0 0-0.703859 9.406119z m144.035193 142.627474l-0.44791-0.575885-49.974005 96.876625a48.822236 48.822236 0 0 1-4.159169 8.062388l-0.383923 0.703859a34.745051 34.745051 0 0 1-58.9962 0l-0.383924-0.703859a44.087183 44.087183 0 0 1-4.095181-8.062388L427.434513 691.228154v0.575885l-296.708658-574.029194h0.767846l-49.974005-96.876625a45.238952 45.238952 0 0 1-3.391322-43.127374 36.920616 36.920616 0 0 1 33.017397-22.843431h541.65167v-33.017397a144.931014 144.931014 0 0 1 8.702259-49.590082H100.075985a30.713857 30.713857 0 0 0-13.245351 3.071386 113.321336 113.321336 0 0 0-72.241552 59.636073 136.54869 136.54869 0 0 0-9.470106 99.052189 56.628674 56.628674 0 0 0 5.5029 16.828634L414.637073 832.575885a32.505499 32.505499 0 0 0 1.983603 3.19936 105.578884 105.578884 0 0 0 190.553889 0 24.955009 24.955009 0 0 0 1.983603-3.135373l282.823436-547.602479h-85.358929z"  horiz-adv-x="1024" />
      
      <glyph glyph-name="ic_yicitiaopin" unicode="&#58908;" d="M0.064 384a512 512 0 1 0 512-512 512.768 512.768 0 0 0-512 512z m80.192-0.64A431.872 431.872 0 1 1 512 815.36a428.8 428.8 0 0 1-431.808-431.936z m396.8-250.496a39.872 39.872 0 0 0-22.336 19.2l-0.64 0.64-2.688 6.976-66.56 232.512-60.352-88.64a39.04 39.04 0 0 0-25.024-16.96h-0.64l-6.4-0.384H138.24a39.552 39.552 0 0 0-39.68 40.32 39.168 39.168 0 0 0 31.616 38.4h0.64l6.976 0.448h132.864l96.96 141.568a39.808 39.808 0 0 0 55.616 10.56 44.8 44.8 0 0 0 12.8-14.848v-0.384l2.688-6.4 54.976-192 118.208 345.6a39.808 39.808 0 0 0 73.024 6.016v-0.384l2.88-7.232 73.984-269.504h102.4a40.064 40.064 0 0 0 39.232-32v-0.384l0.64-6.4v-0.448a39.168 39.168 0 0 0-31.616-39.232h-0.64l-6.976-0.64H731.52a39.808 39.808 0 0 0-35.968 22.336v0.64l-2.24 6.016-47.936 174.208-117.632-343.744a39.936 39.936 0 0 0-37.632-27.264 35.904 35.904 0 0 0-12.864 1.408z"  horiz-adv-x="1024" />
      
      <glyph glyph-name="ic_zhubeipeizhi" unicode="&#58909;" d="M409.6 896a153.6 153.6 0 0 0 153.6-153.6v-716.8A153.6 153.6 0 0 0 409.6-128h-256A153.6 153.6 0 0 0 0 25.6V742.4A153.6 153.6 0 0 0 153.6 896h256z m460.8 0A153.6 153.6 0 0 0 1024 742.4v-716.8a153.6 153.6 0 0 0-153.6-153.6h-256a153.216 153.216 0 0 0-57.6 11.2 203.712 203.712 0 0 1 43.392 66.944 77.376 77.376 0 0 1 14.336-1.344h256a76.8 76.8 0 0 1 76.8 76.8V742.4a76.8 76.8 0 0 1-76.8 76.8h-256a78.336 78.336 0 0 1-14.4-1.344A204.16 204.16 0 0 1 556.928 884.8a152.064 152.064 0 0 0 57.6 11.2h256zM409.6 819.2h-256a76.8 76.8 0 0 1-76.8-76.8v-716.8a76.8 76.8 0 0 1 76.8-76.8h256a76.8 76.8 0 0 1 76.8 76.8V742.4a76.8 76.8 0 0 1-76.8 76.8zM396.8 128a38.4 38.4 0 0 0 0-76.8H166.4a38.4 38.4 0 1 0 0 76.8z m460.8 0a38.4 38.4 0 1 0 0-76.8H627.2a38.4 38.4 0 0 0-12.8 2.176v72.448A38.4 38.4 0 0 0 627.2 128zM396.8 281.6a38.4 38.4 0 0 0 0-76.8H166.4a38.4 38.4 0 1 0 0 76.8z m460.8 0a38.4 38.4 0 0 0 5.248-76.416l-5.248-0.384H627.2a38.4 38.4 0 0 0-12.8 2.176V279.424a38.4 38.4 0 0 0 8.32 1.92h4.48z m-512 409.6a89.6 89.6 0 0 0 89.6-89.6v-76.8a89.6 89.6 0 0 0-89.6-89.6h-128A89.6 89.6 0 0 0 128 524.8V601.6a89.6 89.6 0 0 0 89.6 89.6z m0-76.8h-128a12.8 12.8 0 0 1-12.8-12.8v-76.8a12.8 12.8 0 0 1 12.8-12.8h128a12.8 12.8 0 0 1 12.8 12.8V601.6a12.8 12.8 0 0 1-12.8 12.8z m512 76.8a38.4 38.4 0 0 0 5.248-76.416L857.6 614.4H627.2a38.4 38.4 0 0 0-12.8 2.176V689.024a38.4 38.4 0 0 0 8.32 1.92h4.48z"  horiz-adv-x="1024" />
      
      <glyph glyph-name="ic_wugongkongzhi" unicode="&#58910;" d="M295.29792-80.064a39.424 39.424 0 0 0-19.2 52.416 39.36 39.36 0 0 0 52.352 19.2 431.936 431.936 0 0 1 183.296-40.576 433.216 433.216 0 0 1 433.216 433.216 433.216 433.216 0 0 1-433.216 433.28 433.28 433.28 0 0 1-433.28-433.28 432.832 432.832 0 0 1 26.688-150.016 39.36 39.36 0 0 0-23.36-50.56 39.424 39.424 0 0 0-50.56 23.36A511.36 511.36 0 0 0 0.00192 384a512 512 0 0 0 512 512 512 512 0 0 0 512-512 512 512 0 0 0-512-512 511.168 511.168 0 0 0-216.704 47.936z m324.672 254.016a181.952 181.952 0 0 0-100.608-28.48 173.824 173.824 0 0 0-132.544 50.368c-51.648 49.728-50.496 109.44-50.496 194.368s-1.152 142.208 50.496 192a175.808 175.808 0 0 0 132.544 53.312 174.4 174.4 0 0 0 131.84-53.312c51.648-49.728 53.696-106.88 53.696-192-3.2-89.6 1.152-124.672-31.168-170.24l46.592-46.016-52.416-50.432zM454.72192 528.448c-19.2-20.736-24.384-43.52-24.384-138.24s4.992-117.44 24.384-138.176a86.08 86.08 0 0 1 64.64-26.24 58.944 58.944 0 0 1 33.024 8.96l-40.256 36.352 53.12 50.432 33.792-30.848a305.728 305.728 0 0 1 9.344 99.456c0 94.72-5.76 117.504-25.088 138.24a84.416 84.416 0 0 1-64 26.24 86.08 86.08 0 0 1-64.512-26.112z"  horiz-adv-x="1024" />
      
      <glyph glyph-name="ic_liuchengjianshi" unicode="&#58911;" d="M960.26688 236.096h-94.272v89.6a72.256 72.256 0 0 1-70.72 73.6H545.16288V541.76h94.144a65.408 65.408 0 0 1 64 66.56V829.504a65.408 65.408 0 0 1-64 66.56H384.77888a65.408 65.408 0 0 1-64-66.56v-221.056a65.408 65.408 0 0 1 64-66.56h94.144v-142.464H228.93888a72.256 72.256 0 0 1-70.72-73.6v-99.52H63.94688a65.408 65.408 0 0 1-64-66.56v-221.248a65.408 65.408 0 0 1 64-66.56h254.528a65.408 65.408 0 0 1 64 66.56v221.312a65.408 65.408 0 0 1-64 66.56H224.26688V325.696a4.608 4.608 0 0 0 4.416 4.608h566.336a4.608 4.608 0 0 0 4.416-4.608v-89.6h-94.016a65.408 65.408 0 0 1-64-66.56v-220.8a65.408 65.408 0 0 1 64-66.56h254.848a65.408 65.408 0 0 1 64 66.56v221.248a65.216 65.216 0 0 1-64 66.368z m-572.8 590.72h249.6v-216.064h-249.6zM316.17088-58.944h-249.6v216.256h249.6v-216.064z m641.664 10.176h-249.6v216.064h249.6v-215.872z"  horiz-adv-x="1024" />
      
      <glyph glyph-name="ic_weihu" unicode="&#58912;" d="M161.344-127.424A161.472 161.472 0 0 0 0 33.856V702.08A161.472 161.472 0 0 0 161.344 863.36h520.896L593.856 775.04H194.56a106.048 106.048 0 0 1-106.176-106.112v-601.6A106.048 106.048 0 0 1 194.56-39.04h602.176a106.048 106.048 0 0 1 106.176 106.112V465.536l88.384 88.32v-520.576A161.472 161.472 0 0 0 829.952-128H161.344z m270.528 282.816a153.6 153.6 0 0 0-56.384 10.688l98.496 98.432a57.856 57.856 0 0 1-81.856 81.856l-98.496-98.432a148.16 148.16 0 0 0 33.216 163.072 150.144 150.144 0 0 0 107.392 43.264 162.432 162.432 0 0 0 37.952-4.736l2.944-0.576L729.6 703.296l-1.216 3.584A150.4 150.4 0 0 0 873.856 896a154.752 154.752 0 0 0 56.96-11.264l-98.496-98.432a57.856 57.856 0 0 1 81.856-81.856l98.496 98.432A148.16 148.16 0 0 0 979.2 640a142.08 142.08 0 0 0-102.4-42.688 132.992 132.992 0 0 0-40.32 5.952l-3.584 1.216-256-256 1.216-3.584a150.016 150.016 0 0 0-39.168-144.704 148.032 148.032 0 0 0-107.072-44.8z"  horiz-adv-x="1024" />
      
      <glyph glyph-name="ic_duishi" unicode="&#58913;" d="M512 895.99936a511.23168 511.23168 0 1 0-362.687773-150.207906A511.29568 511.29568 0 0 0 512 895.99936z m287.039821-224.76786a404.159747 404.159747 0 1 1 119.871925-286.71982 399.48775 399.48775 0 0 1-119.935925 286.71982zM415.87206 666.687503a53.631966 53.631966 0 1 0 107.199933 0v-285.183821h213.375867a53.055967 53.055967 0 0 0 53.631966-53.631967 53.759966 53.759966 0 0 0-53.631966-53.631966H469.504027a53.759966 53.759966 0 0 0-53.631967 53.631966z"  horiz-adv-x="1024" />
      
      <glyph glyph-name="ic_dianyakongzhi" unicode="&#58914;" d="M332.928-98.112a44.352 44.352 0 0 0-25.6 55.488 44.8 44.8 0 0 0 55.488 25.6 439.36 439.36 0 0 1 149.376-25.6 427.84 427.84 0 0 1 426.56 426.688 427.712 427.712 0 0 1-426.56 426.56 427.84 427.84 0 0 1-426.688-426.56 413.824 413.824 0 0 1 59.712-213.44 43.008 43.008 0 0 0-17.088-59.648 43.008 43.008 0 0 0-59.712 17.024A535.68 535.68 0 0 0 0.128 384a513.6 513.6 0 0 0 512 512 513.536 513.536 0 0 0 512-512 513.6 513.6 0 0 0-512-512 656.32 656.32 0 0 0-179.2 29.888z m140.8 247.552L298.752 516.288a42.304 42.304 0 0 0 21.44 55.488 42.432 42.432 0 0 0 55.488-21.376l136.384-290.176 136.704 294.4A42.24 42.24 0 0 0 704.128 576a42.176 42.176 0 0 0 21.44-55.296l-174.976-367.04a39.552 39.552 0 0 0-38.4-29.76 40.96 40.96 0 0 0-38.464 25.536z"  horiz-adv-x="1024" />
      
      <glyph glyph-name="ic_shebeijiankong" unicode="&#58915;" d="M897.711124 896H126.288876A124.092271 124.092271 0 0 1 2.642293 772.353417v-566.660449a124.092271 124.092271 0 0 1 123.646583-123.646584h771.422248A124.092271 124.092271 0 0 1 1021.357707 205.565628v566.660449A124.092271 124.092271 0 0 1 897.711124 896z m43.040726-690.434372a43.040726 43.040726 0 0 0-43.040726-43.040726H126.288876a43.040726 43.040726 0 0 0-43.040726 43.040726V404.724492h143.957222l66.216502-110.657962a39.793571 39.793571 0 0 1 33.935957-19.482932h-0.573027a40.302929 40.302929 0 0 1 33.808618 18.527886l218.578126 337.449481 167.642355-209.282348a40.302929 40.302929 0 0 1 31.516508-14.835043h161.148045v-201.450973z m0 281.993161h-141.665112L608.777964 725.110489a41.194305 41.194305 0 0 1-33.108251 15.280732 39.347883 39.347883 0 0 1-31.834856-18.527887L329.586271 391.73587l-46.351551 74.111547a40.748617 40.748617 0 0 1-34.699994 19.419262h-165.541255V772.353417a43.040726 43.040726 0 0 0 43.040727 43.040726h771.676926a43.040726 43.040726 0 0 0 43.040726-43.040726v-284.794628z m-188.462352-529.732015H271.646832a39.793571 39.793571 0 0 1-39.347883-40.748617 40.302929 40.302929 0 0 1 39.347883-39.793571h480.642666a40.302929 40.302929 0 1 1 0 80.542188z"  horiz-adv-x="1024" />
      
      <glyph glyph-name="ic_yougongkongzhi" unicode="&#58916;" d="M78.81536 384a432.96 432.96 0 1 0 249.984-392.64 39.424 39.424 0 0 1-33.408-71.36 511.424 511.424 0 1 1-263.808 286.784 39.424 39.424 0 1 1 73.92 27.264A432.32 432.32 0 0 0 78.81536 384z m294.4 216.32v-491.968h92.864V267.84H530.59136c134.4 0 189.312 44.8 189.312 168.704 0 115.584-44.8 163.776-189.312 163.776z m146.048-257.344h-53.184V525.184h53.184c78.72 0 105.6-22.656 105.6-90.048 0.064-71.616-26.176-92.16-105.6-92.16z"  horiz-adv-x="1024" />
      
      <glyph glyph-name="ic_gongshuaiyinshu" unicode="&#58917;" d="M295.29792-80a39.36 39.36 0 0 0-19.2 52.352 39.424 39.424 0 0 0 52.352 19.2 431.104 431.104 0 0 1 183.296-40.64 433.216 433.216 0 0 1 433.216 433.28 433.216 433.216 0 0 1-433.216 433.216 433.216 433.216 0 0 1-433.28-433.216 432.64 432.64 0 0 1 26.688-150.016 39.36 39.36 0 0 0-23.36-50.56 39.36 39.36 0 0 0-50.56 23.36A511.104 511.104 0 0 0 0.00192 384a512 512 0 0 0 512 512 512 512 0 0 0 512-512 512 512 0 0 0-512-512h-0.768a510.4 510.4 0 0 0-215.936 48zM467.00992 64v165.056h-1.344A207.424 207.424 0 0 0 313.60192 285.44 200.384 200.384 0 0 0 256.00192 433.664 250.752 250.752 0 0 0 339.20192 627.2l3.84 3.52h119.104l-23.36-19.776a227.584 227.584 0 0 1-86.08-177.856 133.312 133.312 0 0 1 31.68-92.48 107.392 107.392 0 0 1 82.24-33.152V526.016c0 74.432 42.688 113.92 123.008 113.92a159.104 159.104 0 0 0 132.032-60.416 239.616 239.616 0 0 0 46.592-148.864 194.048 194.048 0 0 0-58.24-144.704 204.8 204.8 0 0 0-149.504-56.384h-1.28a5.504 5.504 0 0 0-2.624-0.576V64z m89.984 455.104v-242.368a86.976 86.976 0 0 1 73.792 37.184 164.544 164.544 0 0 1 29.76 102.848 230.4 230.4 0 0 1-21.376 103.424 57.6 57.6 0 0 1-51.2 38.4c-15.424 0-31.168-4.608-31.168-39.488z"  horiz-adv-x="1024" />
      
      <glyph glyph-name="ic_shuju" unicode="&#58918;" d="M160.064-127.936a160 160 0 0 0-160 160v704a160 160 0 0 0 160 160h704a160 160 0 0 0 160-160v-704a160 160 0 0 0-160-160z m-80 864v-704a80 80 0 0 1 80-80h704a80.128 80.128 0 0 1 80.064 80v704a80.256 80.256 0 0 1-80.064 80h-704a80.128 80.128 0 0 1-80-80z m652.032-642.112a12.032 12.032 0 0 0-12.032 12.032V342.016a12.096 12.096 0 0 0 12.032 12.032h55.872a12.096 12.096 0 0 0 12.032-12.032v-236.032a12.096 12.096 0 0 0-12.032-12.032z m-248.128 0a11.904 11.904 0 0 0-11.904 12.032V487.936a11.904 11.904 0 0 0 11.904 12.032h56.064a12.032 12.032 0 0 0 12.032-12.032v-381.952a12.032 12.032 0 0 0-12.032-12.032z m-247.936 0a12.096 12.096 0 0 0-12.032 12.032V661.952a12.096 12.096 0 0 0 12.032 12.032h55.936a12.096 12.096 0 0 0 12.032-12.032v-555.968a12.096 12.096 0 0 0-12.032-12.032z m505.984 570.112a65.92 65.92 0 0 0 66.048 65.856 66.048 66.048 0 0 0 65.984-65.856 66.112 66.112 0 0 0-65.984-66.048 65.984 65.984 0 0 0-65.984 66.112z"  horiz-adv-x="1024" />
      
      <glyph glyph-name="ic_caozuorizhi" unicode="&#58919;" d="M997.248 657.92L617.152 277.696a112.256 112.256 0 0 0-40.384-25.984l-158.976-59.584a69.888 69.888 0 0 0-25.152-4.608 76.032 76.032 0 0 0-53.696 23.104 74.176 74.176 0 0 0-18.432 78.976l59.84 159.04a112.384 112.384 0 0 0 25.6 40.448L786.176 869.184A93.632 93.632 0 0 0 859.52 895.68a109.504 109.504 0 0 0 69.12-32.384l62.72-62.784a109.824 109.824 0 0 0 32-69.184 93.824 93.824 0 0 0-26.432-73.472z m-69.44 79.296l-62.72 62.784a20.608 20.608 0 0 1-12.352 6.4h-0.768a6.976 6.976 0 0 1-2.368-0.32L469.952 425.472a22.592 22.592 0 0 1-5.312-8.384l-48.96-129.92 129.856 48.704a23.552 23.552 0 0 1 8.384 5.312l379.904 380.416a7.04 7.04 0 0 1 0.384 3.2 20.864 20.864 0 0 1-6.4 12.416z m-378.432 67.2H211.328a44.8 44.8 0 0 1-44.8-44.8v-95.04h32a44.8 44.8 0 0 0 0-89.6H44.8a44.8 44.8 0 0 0 0 89.6h32V759.424A134.848 134.848 0 0 0 211.328 894.144h338.048a44.8 44.8 0 0 0 0-89.6zM44.8 494.656h153.6a44.8 44.8 0 0 0 0-89.6H44.8a44.8 44.8 0 0 0 0 89.6z m0-170.112h153.6a44.8 44.8 0 0 0 0-89.6h-32v-227.904a44.8 44.8 0 0 1 44.8-44.8h676.288a44.8 44.8 0 0 1 44.8 44.8V417.088a44.8 44.8 0 0 0 89.6 0v-410.048a134.912 134.912 0 0 0-134.4-134.784H211.328a134.912 134.912 0 0 0-134.592 134.784v227.648h-32a44.8 44.8 0 0 0 0 89.6z"  horiz-adv-x="1024" />
      
      <glyph glyph-name="ic_luboshuju" unicode="&#58920;" d="M969.92-28.736H105.024a1756.736 1756.736 0 0 0 72.768 239.296c33.28 79.936 69.632 126.976 105.536 136.384a69.952 69.952 0 0 0 15.104 2.112 100.8 100.8 0 0 0 42.112-10.944 352.896 352.896 0 0 0 98.24-80.448 393.728 393.728 0 0 1 133.056-99.264 201.92 201.92 0 0 1 76.416-15.68 172.8 172.8 0 0 1 59.264 10.432 239.872 239.872 0 0 1 128.384 135.296 654.848 654.848 0 0 1 48.32 239.808 177.536 177.536 0 0 0 53.568 117.056 248.192 248.192 0 0 0 53.568 42.304 49.152 49.152 0 0 1 32.768 47.04 49.792 49.792 0 0 1-49.408 49.664 47.744 47.744 0 0 1-18.688-3.648l-0.64 0.128-9.344-4.672a310.592 310.592 0 0 1-161.152-243.968c-5.696-150.976-49.92-263.296-112.256-286.272a65.984 65.984 0 0 0-24.96-4.16 211.648 211.648 0 0 0-137.216 82.56 441.6 441.6 0 0 1-128 102.4A192.704 192.704 0 0 1 297.856 448a141.376 141.376 0 0 1-39.488-5.248 267.584 267.584 0 0 1-159.552-166.4V846.336a49.408 49.408 0 1 1-98.752 0v-924.672A49.792 49.792 0 0 1 49.408-128h920a49.664 49.664 0 0 1 0.512 99.264z"  horiz-adv-x="1024" />
      
      <glyph glyph-name="ic_vsg" unicode="&#58921;" d="M66.935633-127.936008a34.427697 34.427697 0 0 0 0 68.919385h891.152606a34.427697 34.427697 0 0 0 0-68.919385z m157.548307 159.980003a63.992001 63.992001 0 0 0-63.992001 63.992001v735.908011a63.992001 63.992001 0 0 0 63.992001 63.992001h575.928009a63.992001 63.992001 0 0 0 63.992001-63.992001v-735.908011a63.992001 63.992001 0 0 0-63.992001-63.992001z m0 735.908011v-607.924009a63.992001 63.992001 0 0 1 63.992001-63.992001h447.944007a63.992001 63.992001 0 0 1 63.992001 63.992001v607.924009a63.992001 63.992001 0 0 1-63.992001 63.992001h-447.944007a63.992001 63.992001 0 0 1-64.311961-63.992001z m714.598675-501.249344V661.341332a42.618673 42.618673 0 1 0 85.237345 0v-394.63867a42.618673 42.618673 0 1 0-85.237345 0z m-938.762655 0V661.341332a42.746657 42.746657 0 0 0 85.493313 0v-394.63867a42.746657 42.746657 0 0 0-85.493313 0z m457.990751 202.790651a5.375328 5.375328 0 0 1-5.183352 6.3992H386.511686a2.23972 2.23972 0 0 0-2.111736 3.071616l77.238345 153.580803a13.502312 13.502312 0 0 0 12.15848 7.423072h120.24097a2.815648 2.815648 0 0 0 2.495688-4.351456l-47.610048-84.021497a4.15948 4.15948 0 0 1 3.583552-6.3992h84.405449a3.51956 3.51956 0 0 0 2.687664-5.567305L416.523935 256.07999z"  horiz-adv-x="1024" />
      
      <glyph glyph-name="ic_celveshineng" unicode="&#58897;" d="M1024.19584 600a177.088 177.088 0 0 1-175.744 184 168.32 168.32 0 0 1-84.032-24A377.984 377.984 0 0 1 512.19584 864 452.992 452.992 0 0 1 252.35584 768a263.744 263.744 0 0 1-84.032 16A175.872 175.872 0 0 1 0.19584 600 187.648 187.648 0 0 1 99.52384 432v-8a438.016 438.016 0 0 1 252.16-400A166.4 166.4 0 0 1 512.19584-96a182.784 182.784 0 0 1 168.128 120 429.632 429.632 0 0 1 252.16 400V432A196.8 196.8 0 0 1 1024.19584 600z m-947.584 0A97.344 97.344 0 0 0 168.32384 704a102.4 102.4 0 0 0 99.328-112 92.032 92.032 0 0 0-99.328-96c-45.888 0-91.712 24-91.712 104zM512.19584-16a109.312 109.312 0 0 0-99.328 104A103.616 103.616 0 0 0 512.19584 192a107.264 107.264 0 0 0 99.328-128A99.904 99.904 0 0 0 512.19584-16z m175.744 136A180.992 180.992 0 0 1 527.49184 272a169.6 169.6 0 0 1-183.424-160l-7.616 8A379.712 379.712 0 0 0 168.32384 416a177.152 177.152 0 0 1 175.744 184 210.56 210.56 0 0 1-30.592 112 332.096 332.096 0 0 0 397.376 0 312.512 312.512 0 0 1-30.592-112A177.152 177.152 0 0 1 856.06784 416a379.712 379.712 0 0 0-168.128-296z m191.04 384a105.472 105.472 0 0 0-122.24 104A96 96 0 0 0 856.06784 704a103.616 103.616 0 0 0 99.328-104 98.432 98.432 0 0 0-76.416-96z"  horiz-adv-x="1024" />
      
      <glyph glyph-name="ic_changzhanshouye" unicode="&#58898;" d="M253.67095-127.936006a126.067551 126.067551 0 0 0-124.787677 129.779184V297.685964h-44.091646a85.36757 85.36757 0 0 0-77.176379 52.538811A86.775431 86.775431 0 0 0 25.597472 445.639353L423.702159 856.798751a115.636581 115.636581 0 0 0 87.031406 39.228126 122.739879 122.739879 0 0 0 89.975115-36.220423l400.472453-416.534867a88.247286 88.247286 0 0 0 15.102509-95.990521 76.792417 76.792417 0 0 0-74.296663-49.531109h-44.091646v-295.842785a132.338932 132.338932 0 0 0-127.987361-129.779185zM71.416948 377.998033a22.525776 22.525776 0 0 1 16.830338-10.878926h77.176378a32.956746 32.956746 0 0 0 33.660676-35.004543v-330.847329a62.329845 62.329845 0 0 1 58.042269-60.346041h514.189224a64.50563 64.50563 0 0 1 60.34604 63.417738V331.474627a32.956746 32.956746 0 0 0 33.660676 35.004543h77.176379a21.437883 21.437883 0 0 1 13.374679 4.223583l0.575944 1.21588a19.582066 19.582066 0 0 1-4.671539 21.757851L551.177571 810.211352a57.594313 57.594313 0 0 1-42.939759 15.678451 47.803279 47.803279 0 0 1-36.540392-17.534268v-0.575943L75.320562 397.260131a22.589769 22.589769 0 0 1-4.095595-19.262098zM994.525791 437.832124L596.229122 852.447181A115.508594 115.508594 0 0 1 510.797559 886.6838a107.125421 107.125421 0 0 1-82.551848-37.244322L32.828758 440.903821a83.191785 83.191785 0 0 1-16.766344-88.951216 78.136284 78.136284 0 0 1 71.544935-48.699191h49.659096v-300.386337a119.860164 119.860164 0 0 1 118.324315-123.187835h513.741268a125.747582 125.747582 0 0 1 121.204032 123.187835V303.253414h49.659096a70.777011 70.777011 0 0 1 68.793206 45.883469 82.423861 82.423861 0 0 1-14.462571 88.695241z m-35.772468-68.473238c0-3.007703-8.063204-8.383172-19.198104-8.383172h-76.792417a26.621371 26.621371 0 0 1-27.709264-28.86115v-326.367771a69.945093 69.945093 0 0 0-65.785503-68.473239H258.02252a67.449339 67.449339 0 0 0-63.481731 66.105472V332.690507a26.621371 26.621371 0 0 1-27.709264 28.86115H90.615052a28.157219 28.157219 0 0 0-21.949833 14.398578 27.709264 27.709264 0 0 0 5.759432 25.597472l392.473243 408.535657a52.602805 52.602805 0 0 0 40.955955 19.838041 63.993681 63.993681 0 0 0 46.779381-17.406281l398.296668-414.551063a25.597472 25.597472 0 0 0 5.823425-28.605175zM656.767144 409.290943h-136.946476l72.952796 193.644877a17.278294 17.278294 0 0 1-4.223583 20.285997 21.245902 21.245902 0 0 1-20.285997 11.838831H471.633426c-8.447166 0-20.285997-8.447166-20.285997-16.062414l-113.268814-294.370931a17.278294 17.278294 0 0 1 4.223583-20.285997 21.245902 21.245902 0 0 1 20.285996-11.838831h116.66048l-104.821649-278.052542c0-4.223583 0-8.447166 4.223583-8.447166h11.838831l285.475809 362.716182a18.814142 18.814142 0 0 1 4.223583 24.50958 27.197314 27.197314 0 0 1-23.677661 16.062414z"  horiz-adv-x="1024" />
      
      <glyph glyph-name="ic_gujianshengji" unicode="&#58899;" d="M701.780139-127.936004a48.444972 48.444972 0 0 1 34.493844 14.3991l271.791013 269.615149a48.444972 48.444972 0 0 1 14.3991 34.493844l1.407912 383.272046a48.444972 48.444972 0 0 1-14.3991 34.493844L739.857759 880.128992a48.444972 48.444972 0 0 1-34.493844 14.3991L322.155865 896a48.444972 48.444972 0 0 1-34.493844-14.3991L15.871008 611.985751a48.444972 48.444972 0 0 1-14.3991-34.493844L0 194.219861a48.444972 48.444972 0 0 1 14.3991-34.493844l269.615149-271.791013a48.444972 48.444972 0 0 1 34.493844-14.3991l383.272046-1.407912z m-15.103056 86.266608l-352.361978 1.407912-248.048497 249.584401 1.407912 352.361978 249.584401 248.048497 351.594026-1.407912 248.048497-249.584401-1.407912-351.594026-248.816449-248.816449zM318.508093 422.813574a43.83726 43.83726 0 0 1 61.11618 0L468.834698 512.023999v-360.233486a43.133304 43.133304 0 1 1 86.266608 0V512.023999l89.146429-89.146429a43.261296 43.261296 0 1 1 63.292044 58.940316l-2.175864 2.175864-158.902069 158.902069a48.188988 48.188988 0 0 1-69.051684 0L318.508093 483.99375a43.83726 43.83726 0 0 1 0-61.11618z"  horiz-adv-x="1024" />
      
      <glyph glyph-name="ic_jiankong" unicode="&#58900;" d="M217.217105-127.99616a43.775836 43.775836 0 0 0-44.351833 43.199838 43.839836 43.839836 0 0 0 44.351833 43.263838h589.56579a43.839836 43.839836 0 0 0 44.415833-43.263838 43.839836 43.839836 0 0 0-44.415833-43.199838zM64.00168 444.993691A449.534314 449.534314 0 0 0 512 896a449.534314 449.534314 0 0 0 447.99832-451.006309 449.470314 449.470314 0 0 0-447.99832-451.006308 449.726314 449.726314 0 0 0-447.99832 451.262307z m85.887678-0.511998A363.326638 363.326638 0 0 1 512 79.683061a363.390637 363.390637 0 0 1 362.110642 364.798632A363.326638 363.326638 0 0 1 512 809.280325v0.511998a363.838636 363.838636 0 0 1-362.110642-365.31063z m176.639338-43.967835a183.039314 183.039314 0 0 0 185.599304 180.543323 182.975314 182.975314 0 0 0 185.599304-180.543323 182.975314 182.975314 0 0 0-185.599304-180.543323 183.551312 183.551312 0 0 0-185.599304 180.479323z m88.831666 0A95.423642 95.423642 0 0 1 512 306.370211a95.487642 95.487642 0 0 1 96.639638 94.143647A95.487642 95.487642 0 0 1 512 494.657505a95.99964 95.99964 0 0 1-96.639638-94.207647z m39.807851 318.590805A56.12779 56.12779 0 0 0 512 774.464456a56.06379 56.06379 0 0 0 56.767787-55.359793 56.06379 56.06379 0 0 0-56.767787-55.295792 56.12779 56.12779 0 0 0-56.831787 55.295792z"  horiz-adv-x="1024" />
      
      <glyph glyph-name="ic_canshu" unicode="&#58901;" d="M1019.677422 592.328041a143.902841 143.902841 0 0 0-104.581294-138.422042v-541.706887a39.194087 39.194087 0 0 0-78.069522-5.353339l-0.382382 5.353339v541.706887a143.839111 143.839111 0 0 0 0 276.716624V853.749412a39.194087 39.194087 0 0 0 78.069522 5.353339l0.382382-5.353339v-123.063059a143.839111 143.839111 0 0 0 104.581294-138.358312z m-78.451903 0a65.387208 65.387208 0 1 1-65.387208-65.387207 65.387208 65.387208 0 0 1 65.387208 65.387207z m-287.614492-418.325177a143.902841 143.902841 0 0 0-104.581295-138.422042v-123.38171a39.194087 39.194087 0 0 0-78.069522-5.353339l-0.382381 5.353339v123.38171a143.839111 143.839111 0 0 0 0 276.716624v541.706887A39.194087 39.194087 0 0 0 548.647351 859.357672l0.382381-5.353339v-541.388236a143.839111 143.839111 0 0 0 104.581295-138.422042z m-78.451904 0a65.387208 65.387208 0 1 1-65.323477-65.387208 65.387208 65.387208 0 0 1 65.387208 65.387208zM287.544631 540.069259A143.902841 143.902841 0 0 0 182.963337 401.647217v-489.448105a39.194087 39.194087 0 0 0-78.069522-5.353339l-0.382381 5.353339V401.647217a143.839111 143.839111 0 0 0 0 276.716624V853.749412A39.194087 39.194087 0 0 0 182.580956 859.102751l0.382381-5.353339v-175.321841a143.839111 143.839111 0 0 0 104.645025-138.422042z m-78.451903 0a65.387208 65.387208 0 1 1-65.387208-65.387207 65.387208 65.387208 0 0 1 65.450938 65.323477z"  horiz-adv-x="1024" />
      
    </font>
</defs>
</svg>
