<svg id="组_36995" data-name="组 36995" xmlns="http://www.w3.org/2000/svg" width="206" height="30" viewBox="0 0 206 30">
  <path id="路径_51401" data-name="路径 51401" d="M143.94,17.139h7.4V14.465h-7.4V10.156h6.282l2.118-2.769H140.53V24.6h11.684v-2.7H143.94Z" fill="#e83828"/>
  <path id="路径_51402" data-name="路径 51402" d="M64.067,24.841a26.485,26.485,0,0,1-5.18-.519V22.545a42.57,42.57,0,0,0,5.18.321c2.467,0,3.713-.864,3.713-3.013,0-1.455-.537-2.3-2.467-3.184l-3.1-1.407c-2.42-1.086-3.738-2.419-3.738-4.962,0-3.012,1.954-4.443,5.937-4.443a25.074,25.074,0,0,1,5.008.494v1.8a48.5,48.5,0,0,0-4.935-.321c-2.4,0-3.738.567-3.738,2.468,0,1.407.513,2.2,2.443,3.062l3.128,1.382c2.541,1.135,3.762,2.542,3.762,5.109,0,3.186-2,4.988-6.01,4.988" fill="#fff"/>
  <path id="路径_51403" data-name="路径 51403" d="M74.885,24.841c-2.444,0-3.323-.889-3.323-3.456V12.769l-2.712-.2V10.917h2.712V7.387h2.2v3.53h3.592v1.852H73.761v8.517c0,1.53.122,1.777,1.368,1.777.757,0,1.808-.074,2.224-.123v1.53a9.116,9.116,0,0,1-2.468.371" fill="#fff"/>
  <path id="路径_51404" data-name="路径 51404" d="M83.154,24.84c-3.763,0-5.718-2.2-5.718-6.146V16.719c0-3.95,1.955-6.147,5.718-6.147,3.787,0,5.742,2.2,5.742,6.147v1.975c0,3.949-1.955,6.146-5.742,6.146M86.7,16.719c0-2.938-1.075-4.2-3.543-4.2-2.419,0-3.518,1.259-3.518,4.2v1.975c0,2.937,1.075,4.2,3.518,4.2,2.468,0,3.543-1.259,3.543-4.2Z" fill="#fff"/>
  <path id="路径_51405" data-name="路径 51405" d="M114.152,30a29.541,29.541,0,0,1-4.936-.494V27.9c1.466.1,3.226.2,4.936.2,2.663,0,2.981-.963,2.981-2.839v-.691a19.409,19.409,0,0,1-2.712.247c-3.787,0-5.987-1.531-5.987-6.271v-1.7c0-4.171,1.735-6.27,6.06-6.27a41.273,41.273,0,0,1,4.838.345V25.26c0,2.79-.88,4.74-5.18,4.74m2.981-17.379a19.3,19.3,0,0,0-2.639-.173c-3.03,0-3.86,1.456-3.86,4.394v1.7c0,3.407,1.074,4.4,3.811,4.4a18.164,18.164,0,0,0,2.688-.223Z" fill="#fff"/>
  <path id="路径_51406" data-name="路径 51406" d="M18.095,6.058c0-1.466-.75-2.786-2.428-2.786H2.635A2.6,2.6,0,0,0,0,6.178V8.156H6.388V24.567h5.323V8.156h6.384Z" fill="#fff" fill-rule="evenodd"/>
  <rect id="矩形_25894" data-name="矩形 25894" width="5.017" height="14.525" transform="translate(23.758 10.042)" fill="#fff"/>
  <path id="路径_51407" data-name="路径 51407" d="M38.531,10.041H30.814c-.61,0-.71.3-.71.7V24.567h4.781V13.829c0-.207.064-.447.322-.447h1.649c1.2,0,1.693.368,1.693,1.776v9.409h4.8V14.642c0-3.294-1.435-4.6-4.816-4.6" fill="#fff" fill-rule="evenodd"/>
  <path id="路径_51408" data-name="路径 51408" d="M52.407,10.046H44.956v1.39c0,1.488.949,1.942,2.054,1.942h3.808c1.2,0,1.606.484,1.606,1.78v.592H48.1c-2.328,0-3.684,1.654-3.684,4.318,0,2.737,1.294,4.5,3.467,4.5h9.346V14.642c0-3.294-1.436-4.6-4.817-4.6m.017,11.194H50.187c-.524,0-.931-.312-.931-1.172s.4-1.172.931-1.172h2.237Z" fill="#fff" fill-rule="evenodd"/>
  <path id="路径_51409" data-name="路径 51409" d="M18.095,11.374V10.042H13.574V24.567H18.3v-6.6c0-2.633,2.574-3.774,4.128-3.774V10.042h-.212a7.052,7.052,0,0,0-4.119,1.332" fill="#fff" fill-rule="evenodd"/>
  <path id="路径_51410" data-name="路径 51410" d="M30.309,4.079a4.037,4.037,0,1,0-4.038,4.078,4.059,4.059,0,0,0,4.038-4.078" fill="#e83828"/>
  <path id="路径_51411" data-name="路径 51411" d="M91.8,13.488V24.493H89.622V10.7h2.151v1.086a7.485,7.485,0,0,1,4.789-1.432v1.976a9.857,9.857,0,0,0-4.765,1.16" fill="#fff"/>
  <path id="路径_51412" data-name="路径 51412" d="M105.606,24.394v-1.03a7.465,7.465,0,0,1-4.276,1.26c-2.517,0-4.008-1.136-4.008-3.852v-.494c0-3.58,2.42-4.2,6.183-4.2h2v-.988c0-2.346-.465-2.864-3.153-2.864a33.018,33.018,0,0,0-4.154.3V10.945a15.648,15.648,0,0,1,4.325-.592c4.472,0,5.181,1.654,5.181,4.74v9.3Zm-.1-6.634h-2c-2.835,0-3.984.345-3.984,2.518v.667c0,1.531.929,1.95,2.249,1.95a7.777,7.777,0,0,0,3.739-1.086Z" fill="#fff"/>
  <path id="路径_51413" data-name="路径 51413" d="M122.257,18.52v.272c0,2.345.342,4.123,4.057,4.123a30.848,30.848,0,0,0,4.692-.4V24.3a19.164,19.164,0,0,1-4.79.543c-4.765,0-6.158-2.149-6.158-6.543V17.261c0-4.272,1.882-6.691,5.694-6.691,3.959,0,5.767,2.4,5.767,6.962v.988Zm6.989-2.074c0-1.655-.342-3.951-3.47-3.951-3.079,0-3.494,2.3-3.494,3.951v.247h6.964Z" fill="#fff"/>
  <rect id="矩形_25895" data-name="矩形 25895" width="1.99" height="17.49" transform="translate(154.961 7.351)" fill="#fff"/>
  <path id="路径_51414" data-name="路径 51414" d="M161.156,19.373v.248c0,2.147.313,3.774,3.713,3.774a28.127,28.127,0,0,0,4.294-.362V24.66a17.5,17.5,0,0,1-4.384.5c-4.361,0-5.636-1.965-5.636-5.988V18.22c0-3.909,1.722-6.124,5.211-6.124,3.623,0,5.278,2.192,5.278,6.373v.9Zm6.4-1.9c0-1.513-.313-3.615-3.176-3.615-2.817,0-3.2,2.1-3.2,3.615V17.7h6.374Z" fill="#fff"/>
  <path id="路径_51415" data-name="路径 51415" d="M176.119,25.157c-3.355,0-4.92-2.056-4.92-5.6V17.678c0-3.571,1.565-5.582,4.92-5.582a12.81,12.81,0,0,1,3.511.43v1.536c-1.5-.158-2.572-.226-3.22-.226-1.969,0-3.2.746-3.2,3.842v1.875c0,3.1,1.229,3.864,3.2,3.864.648,0,1.722-.068,3.22-.226v1.537a12.866,12.866,0,0,1-3.511.429" fill="#fff"/>
  <path id="路径_51416" data-name="路径 51416" d="M187.391,25.157c-4.137,0-6.418-2.712-6.418-7.5v-2.4c0-4.791,2.281-7.48,6.418-7.48s6.419,2.689,6.419,7.48v2.4c0,4.79-2.281,7.5-6.419,7.5m4.339-9.9c0-4.113-1.789-5.627-4.339-5.627s-4.339,1.514-4.339,5.627v2.4c0,4.113,1.79,5.649,4.339,5.649s4.339-1.536,4.339-5.649Z" fill="#fff"/>
  <path id="路径_51417" data-name="路径 51417" d="M200.5,25.157a24.286,24.286,0,0,1-4.741-.474V23.055a38.642,38.642,0,0,0,4.741.294c2.259,0,3.4-.791,3.4-2.756,0-1.334-.492-2.1-2.259-2.915L198.8,16.39c-2.215-.995-3.422-2.215-3.422-4.542,0-2.757,1.789-4.068,5.435-4.068a22.989,22.989,0,0,1,4.584.452v1.65a44.53,44.53,0,0,0-4.518-.294c-2.191,0-3.421.519-3.421,2.26,0,1.287.469,2.011,2.236,2.8l2.863,1.266c2.325,1.039,3.444,2.328,3.444,4.678,0,2.915-1.834,4.564-5.5,4.564" fill="#fff"/>
</svg>
